<svg width="49" height="48" viewBox="0 0 49 48" fill="none" xmlns="http://www.w3.org/2000/svg">
<g clip-path="url(#clip0_129_1602)">
<path d="M48.5001 24.5513C48.5001 22.9198 48.3651 21.2796 48.0772 19.6746H24.9814V28.9165H38.2073C37.6585 31.8972 35.895 34.534 33.3128 36.2096V42.2063H41.2034C45.8369 38.0262 48.5001 31.8531 48.5001 24.5513Z" fill="#4285F4"/>
<path d="M24.9817 47.9999C31.5857 47.9999 37.1549 45.8746 41.2127 42.2061L33.3221 36.2094C31.1268 37.6733 28.2927 38.5022 24.9907 38.5022C18.6027 38.5022 13.1864 34.2781 11.243 28.5989H3.10059V34.7808C7.25729 42.8851 15.7236 47.9999 24.9817 47.9999Z" fill="#34A853"/>
<path d="M11.2333 28.599C10.2076 25.6183 10.2076 22.3906 11.2333 19.4099V13.228H3.0998C-0.373111 20.0096 -0.373111 27.9993 3.0998 34.7808L11.2333 28.599Z" fill="#FBBC04"/>
<path d="M24.9817 9.49761C28.4727 9.4447 31.8466 10.7322 34.3748 13.0956L41.3656 6.24352C36.939 2.1693 31.0638 -0.070641 24.9817 -9.16524e-05C15.7236 -9.16524e-05 7.25729 5.11474 3.10059 13.2279L11.234 19.4098C13.1684 13.7218 18.5937 9.49761 24.9817 9.49761Z" fill="#EA4335"/>
</g>
<defs>
<clipPath id="clip0_129_1602">
<rect width="48" height="48" fill="white" transform="translate(0.5)"/>
</clipPath>
</defs>
</svg>
